<svg id="Layer_1" data-name="Layer 1" xmlns="http://www.w3.org/2000/svg" viewBox="0 0 587 452.62"><defs><style>.cls-1{fill:#099;}.cls-2{fill:#ccc;}.cls-3{fill:#999;}.cls-10,.cls-4,.cls-8,.cls-9{fill:#336;}.cls-5{fill:none;}.cls-6{font-size:66.4px;font-family:NovaSlim, Nova Slim;}.cls-7{letter-spacing:0em;}.cls-8{letter-spacing:0em;}.cls-9{letter-spacing:-0.07em;}.cls-10{letter-spacing:-0.05em;}</style></defs><title>2</title><rect class="cls-1" x="181.13" width="41.25" height="299.68"/><polygon class="cls-1" points="230.78 0.15 230.78 153.22 271.82 299.7 307.99 299.7 233.8 0.15 230.78 0.15"/><polygon class="cls-2" points="450.55 186.54 181.13 186.54 201.83 146.11 436.14 146.11 450.55 186.54"/><polygon class="cls-3" points="464.26 223.95 300.59 223.95 313.17 199.39 455.51 199.39 464.26 223.95"/><polygon class="cls-4" points="399.25 299.7 346.27 0 386.99 0 450.55 299.72 399.25 299.7"/><polygon class="cls-1" points="310.83 275.98 347.84 153.19 347.84 0.15 344.3 0.15 293.5 205.17 310.83 275.98"/><line class="cls-5" x1="436.14" y1="146.11" x2="485.08" y2="281.72"/><text class="cls-6" transform="translate(0 438.04)"><tspan class="cls-1">MAKER</tspan><tspan class="cls-7" x="243.51" y="0"> </tspan><tspan class="cls-8" x="269.44" y="0">AU</tspan><tspan class="cls-9" x="360.87" y="0">C</tspan><tspan class="cls-10" x="401.72" y="0">T</tspan><tspan class="cls-4" x="433.04" y="0">IONS</tspan></text></svg>