<svg id="Layer_1" data-name="Layer 1" xmlns="http://www.w3.org/2000/svg" viewBox="0 0 663.06 454.52"><defs><style>.cls-1{fill:#999;}.cls-2{fill:#099;}.cls-3{fill:#ccc;}.cls-4,.cls-6,.cls-7{fill:#336;}.cls-5{font-size:75px;font-family:NovaSlim, Nova Slim;}.cls-6{letter-spacing:-0.07em;}.cls-7{letter-spacing:-0.05em;}</style></defs><title>3</title><polygon class="cls-1" points="504.04 299.72 219.94 299.72 241.77 228.11 488.85 228.11 504.04 299.72"/><rect class="cls-2" x="214.57" width="41.25" height="299.68"/><polygon class="cls-2" points="264.22 0.15 264.22 153.22 305.25 299.7 341.43 299.7 267.24 0.15 264.22 0.15"/><polygon class="cls-3" points="480.41 188.3 220.17 188.3 240.16 122.72 466.5 122.72 480.41 188.3"/><polygon class="cls-4" points="432.68 299.7 379.71 0 420.42 0 483.98 299.72 432.68 299.7"/><polygon class="cls-2" points="344.26 275.98 381.27 153.19 381.27 0.15 377.73 0.15 326.94 205.17 344.26 275.98"/><text class="cls-5" transform="translate(0 438.04)"><tspan class="cls-2">MAKER</tspan><tspan x="275.06" y="0"> </tspan><tspan class="cls-4" x="304.36" y="0">AU</tspan><tspan class="cls-6" x="407.63" y="0">C</tspan><tspan class="cls-7" x="453.77" y="0">T</tspan><tspan class="cls-4" x="489.15" y="0">IONS</tspan></text></svg>