<svg xmlns="http://www.w3.org/2000/svg" viewBox="0 0 76.76705 44.32422"><title>maker_auctions_logo_design1</title><g id="Layer_2" data-name="Layer 2"><g id="Layer_1-2" data-name="Layer 1"><circle cx="14.39087" cy="18.45639" r="14.13831" fill="#fff" stroke="#16a085" stroke-miterlimit="10" stroke-width="0.5"/><path d="M23.31081,36.04057c-.64906-1.074-1.30155-2.146-1.94387-3.2241-.10948-.18375-.3982-.37977-.06424-.647.34788-.27836.53634-.00012.76278.08893,1.28962.50722,2.52554,1.08158,3.89476,1.49a2.56632,2.56632,0,0,1,1.58712,1.21014,6.50967,6.50967,0,0,0,1.34006,1.72293c-.23945.3624.0098.51494.13967.72587.54071.87827,1.08807,1.75286,1.59557,2.65088.46194.81742.09241,1.47177-1.20331,2.225-1.01236.5885-1.89875.52827-2.31633-.1631-1.11893-1.85254-2.23233-3.70844-3.35635-5.55789A4.40265,4.40265,0,0,0,23.31081,36.04057Z" fill="#16a085"/><path d="M25.618,32.53032a3.56868,3.56868,0,0,0,.45574.4509,4.15026,4.15026,0,0,0,.60384.29727c-.37053.18276-.57384-.00141-.84349-.02463a6.21734,6.21734,0,0,1-.98-.21848,4.51605,4.51605,0,0,0-3.53116.13395q-.467-.79006-.93321-1.579c.97675-.79387,2.1697-1.2742,3.17154-2.03168.50139.81439.99958,1.63076,1.50634,2.44185C25.20079,32.21372,25.2533,32.49351,25.618,32.53032Z" fill="#16a085"/><path d="M25.56407,32.62431c1.32872-.08391,2.6413-.34294,3.9818-.30415a1.99192,1.99192,0,0,1,1.6299.84973c.93277,1.25781,1.89207,2.49624,2.7943,3.776a1.91783,1.91783,0,0,0,1.06243.70168c.38734.128.46217.31783.31059.66108q-1.03794,2.35031-1.87644,4.78437c-.11413.33242-.3517.2877-.61151.21539-.93881-.2613-1.87953-.51511-2.81853-.77566a1.25978,1.25978,0,0,0-.72736-.1145,9.51872,9.51872,0,0,1-.84356-1.814,3.29161,3.29161,0,0,0-.99612-1.45043c-.85709-.717-1.63147-1.53721-2.43917-2.3156-.14182-.13667-.26058-.422-.477-.283-.20774.13343-.02661.377.04245.56134.40525,1.08153.81681,2.16069,1.22625,3.24065-.552-.03568-1.03334-.172-1.18916-.8192a.48091.48091,0,0,0-.37882-.366c-.35429-.07155-.49124-.35417-.68588-.6152-.69272-.929-1.6258-1.766-.92159-3.1071a.76248.76248,0,0,0-.2618-1.06635,1.23607,1.23607,0,0,1-.04752-1.98288.939.939,0,0,0,.30661-.43619,2.86353,2.86353,0,0,1,2.39961.89549,5.51439,5.51439,0,0,0,.66525.479c.18314.09854.32075.32311.573.265a4.8505,4.8505,0,0,1-.40942-.44181A5.25472,5.25472,0,0,1,25.56407,32.62431Z" fill="#9c7761"/><path d="M10.59394,11.34758,4.99253,14.54217l2.56424,4.49616-1.94645,1.1101.91859,1.61066L8.47536,20.649l.96415,1.69055-1.94646,1.1101.91859,1.61066,1.94646-1.11011,2.5331,4.44156,5.60142-3.1946a8.15034,8.15034,0,0,0,4.38433-8.3867L24.655,15.79637l-.91859-1.61066-1.38811.79167a8.5068,8.5068,0,0,0-.44691-.90305l-.02256-.03956a8.47019,8.47019,0,0,0-.484-.754l1.37744-.78558-.91859-1.61066-1.74489.99515C17.62821,9.7628,14.0011,9.4044,10.59394,11.34758Zm3.03917,14.70623L11.924,23.0571,21.16119,17.789a6.32666,6.32666,0,0,1-3.4926,5.96332Zm-2.62767-4.60737,9.71692-5.54174a6.99285,6.99285,0,0,0-.41889-.86659l-.02257-.03957a6.994,6.994,0,0,0-.52026-.78577L10.04129,19.7559Zm7.36625-8.57607a6.32793,6.32793,0,0,0-6.95508-.08031L7.38113,15.09157,9.1227,18.14525Z" fill="#f4b731" fill-rule="evenodd"/><path d="M36.76762,34.7435a8.14369,8.14369,0,0,0,.08029-2.85266c-.0054-.17207-.17456-.43457.17445-.48425.52909-.07532.46174.24228.61625.39873A24.4484,24.4484,0,0,0,39.775,33.96645a3.06539,3.06539,0,0,1,1.19922,2.96747c-.01591.19828-.1.39643.11392.58127-.395.941-.05082,1.89173-.13536,2.83741-.08745.97816-.86577,1.2981-2.72323,1.10267-1.13236-.11914-1.31354-.53121-1.31313-1.01691.00141-1.66568.01343-3.33135.01257-4.997C36.92889,35.20692,37.0181,34.9638,36.76762,34.7435Z" fill="#16a085"/><path d="M41.08913,36.91651c-.0867.287.14725.72235-.24023.85-.44549.1468-.42221-.36-.60952-.58137a6.92888,6.92888,0,0,1-.7683-1.183,3.36674,3.36674,0,0,0-2.70444-1.9259q.027-1.63189.05382-3.26284A22.57206,22.57206,0,0,0,40.95,30.74071c-.02124,1.83674-.04012,3.6735-.06645,5.51017A.90649.90649,0,0,0,41.08913,36.91651Z" fill="#16a085"/><circle cx="62.14125" cy="18.45639" r="14.37239" fill="#fff" stroke="#16a085" stroke-miterlimit="10" stroke-width="0.5"/><ellipse cx="38.92789" cy="15.36593" rx="14.4" ry="15.12" fill="#fff" stroke="#16a085" stroke-miterlimit="10" stroke-width="0.49186"/><path d="M30.54978,11.984v8.41518H28.96652V10.62341A.922.922,0,0,1,30.44543,9.864l7.52051,5.82436a.96015.96015,0,0,1,.36823.75945v3.95141H36.7509V16.78654Z" fill="#1aab9b"/><path d="M47.306,20.39918V11.984l-6.20112,4.80254v3.61264H39.52161V16.44777a.96015.96015,0,0,1,.36823-.75945L47.41036,9.864a.922.922,0,0,1,1.4789.75945v9.77577Z" fill="#1aab9b"/><path d="M57.234,28.87127c-.36824.15061-.73563.3034-1.106.44867-.04.0157-.106.10805-.1471-.00776q1.40647-2.32668,2.81374-4.65271a2.63238,2.63238,0,0,1,.16325-.21732l.40036-.008.04348-.00371.832.0259.35734.00543.34561.01218,1.41348.0299.7066.00806.63086.02011.04665-.00081a.02837.02837,0,0,0,.024.0011l.53365.01063.176.00273q.70436.01506,1.40867.03015l.639.01808.00454.006.00657-.00535.01143.00054.08534-.00719a.03568.03568,0,0,0,.02738.00115l.10668.00626.06493.00427.069.00105.38759.01069a.14631.14631,0,0,1,.02307.01883l.00348.0153-.945.42079-.09691.04193-.60859.25123L65.327,25.495l-.37752.1568-1.53541.648-.56424.232-2.1036.87609-.18412.07454-.5218.21829-.44309.18662-.24408.105.00158.00192-.04388.01192.00176-.00012-.04194.01546-.62882.26371-.03691.013Z" fill="#7985ca"/><path d="M58.958,24.44216a2.63055,2.63055,0,0,0-.16325.21731q-1.40836,2.32541-2.81375,4.65271l-.04753-.05633-.04156-.47871-.05167-.56721-.02208-.19381q-.10812-1.15536-.21629-2.31073l-.05722-.56933-.01-.14946-.1412-1.50522-.038-.41275-.0205-.26548-.0085-.04058.00371-.03025-.072-.68809-.00461-.07269q-.07577-.78074-.15155-1.56148l-.04164-.41421-.02175-.301-.07793-.72267a.0441.0441,0,0,0-.01331-.018l-.12768-1.52974-.01264-.29993c.06085.08867.12271.17668.18218.26628.0363.05471.06892.11187.1032.16793l.0168.03939.32873.58442.63413,1.13726.01489.03444.01927.02436.70831,1.26653.1043.18192.24148.42867.344.61106.01961.03691.304.54712.71183,1.252Z" fill="#9ea7d9"/><path d="M56.58218,17.45866a.03567.03567,0,0,0-.01474-.02208l-.01849-.037-.28936-.51011-.02488-.04222-.3423-.6115-.27876-.508.06285-.04511a.38234.38234,0,0,0,.09577.04183c1.28864.17505,2.57787.34575,3.86624.52275,1.29275.1776,2.58466.36126,3.87694.54227l.00184.00715L59.747,23.06575l-.06283-.0719-.41289-.7358-.02158-.03037-.32836-.58-.27295-.494a.0177.0177,0,0,0-.01084-.01624l-.33219-.59013-.00192.00121-.01514-.04249-.6581-1.17533L56.92606,18.08l-.08632-.15631Z" fill="#7985ca"/><path d="M66.53951,10.22707l.14112-.07339.54667-.269.478-.244.10831-.02234q-2.149,3.5856-4.29812,7.17116c-1.29228-.181-2.58419-.36467-3.87694-.54227-1.28837-.177-2.5776-.3477-3.86624-.52275a.3831.3831,0,0,1-.09576-.0418l.47073-.26813L57.495,14.747a.042.042,0,0,0,.01821-.017l.635-.30773.39425-.21.24239-.11586.04024-.01259.0363-.01423a.07612.07612,0,0,0,.02092-.018l.0416-.01676.51432-.2622.10293-.052.5134-.25311,1.32907-.66573.21361-.11314.43947-.21114,1.271-.63171,1.307-.668.07693-.035.59537-.28545.39394-.212.24429-.11271Z" fill="#9ea7d9"/><path d="M63.51545,16.78954q2.14906-3.58557,4.29812-7.17116l.07427,1.1421.0207.3188.01617.55677-.002.09008.04235,1.45374.03195,1.44755.01109.4589.00969.26958.00893.04414-.002.00008q.01993.703.03991,1.40606l-.01259.071a.0161.0161,0,0,0,.00483.02474l.01333.4503.00471.22064.03752,1.41453.018.55a.031.031,0,0,0,.0006.02613l-.00276.06976-.00062.07028.04433,1.45631.0193.7327.01894.75381.008.40068-.01752.16095a.46.46,0,0,1-.07935-.06914q-1.42647-1.97166-2.85149-3.94435c-.5811-.80154-1.16819-1.59875-1.75259-2.3979Z" fill="#7985ca"/><path d="M63.51729,16.79669c.5844.79915,1.17149,1.59636,1.75259,2.3979q1.4284,1.97025,2.85149,3.94435a.46.46,0,0,0,.07935.06914l.018.015-.13932.06005-.70027-.0217-.4627-.00581-.24828-.00477-1.40909-.03128L63.85438,23.188l-.62357-.00791-.084-.00613-.70386-.01717-2.07859-.04521-.04432.00378.00039-.00185-.57346-.0478Q61.63214,19.93122,63.51729,16.79669Z" fill="#5c6bbf"/><path d="M54.25476,35.82752c.58312-.96532,1.16967-1.92859,1.74606-2.898.09824-.16522.37029-.33375.03342-.59617-.3509-.27337-.52173-.0242-.738.04808-1.23169.41172-2.40814.888-3.72171,1.20463A2.18238,2.18238,0,0,0,50.085,34.63529a5.29089,5.29089,0,0,1-1.22614,1.53511c.2492.34632.01359.47636-.10326.66584-.48652.78892-.97969,1.57413-1.433,2.38284-.41263.73611-.02378,1.3586,1.27048,2.11424,1.01121.59039,1.87074.57443,2.24589-.047,1.00522-1.66506,2.00492-3.33346,3.01522-4.99543A3.58552,3.58552,0,0,1,54.25476,35.82752Z" fill="#16a085"/><path d="M51.85275,32.47363a2.94407,2.94407,0,0,1-.42307.397,3.7034,3.7034,0,0,1-.574.24813c.36864.18587.55814.02448.8194.01509a5.983,5.983,0,0,0,.94352-.15827,4.65119,4.65119,0,0,1,3.441.28266q.41882-.71056.83685-1.42015c-.9858-.779-2.16783-1.27729-3.1764-2.02368-.45115.73155-.89908,1.46507-1.3556,2.19332C52.24435,32.19922,52.20584,32.45593,51.85275,32.47363Z" fill="#16a085"/><path d="M36.83242,38.07834c-.37282-.0289-.67791-.2334-.65166-.56638a1.28031,1.28031,0,0,0-.47071-1.00979c-.38714-.43567-.28956-1.05184-.591-1.55376-.34791-.57928.223-1.00715.53551-1.44166a1.008,1.008,0,0,0,.14655-1.22616,1.05142,1.05142,0,0,1,.68925-1.45816.8685.8685,0,0,0,.41309-.23186,1.72423,1.72423,0,0,1,1.38678.943,3.38055,3.38055,0,0,0,.394.57929c.096.10841.08411.35657.31255.28468.19869-.06252.07873-.27571.12319-.41623,1.06205.27328,2.12228.55325,3.18667.818,1.08815.27061,1.37781,1.119,1.62761,2.00562.2489.88348.5272,1.76006.74939,2.6495a2.08918,2.08918,0,0,0,.7641,1.22887c.33284.25122.33076.45964.02928.75932-1.00478.99879-1.98765,2.018-2.96484,3.0416a.45878.45878,0,0,1-.72088.05028c-.77907-.56348-1.58514-1.0929-2.37847-1.63853a.34906.34906,0,0,0-.27892-.0863.92116.92116,0,0,1-.06068-.5728,4.58032,4.58032,0,0,0-.63879-2.92428,23.36189,23.36189,0,0,1-1.138-2.12967c-.08231-.15418-.04643-.46715-.32827-.39293-.18591.049-.0958.30764-.09292.47721A14.75313,14.75313,0,0,1,36.83242,38.07834Z" fill="#f5e0cd"/><path d="M54.84431,34.31175c.59051,1.13008,1.31546,2.19926,1.812,3.37243a1.76806,1.76806,0,0,1-.04154,1.64142c-.644,1.146-1.26206,2.30986-1.93577,3.43525a1.62712,1.62712,0,0,0-.1459,1.10953c.04955.37028-.07358.486-.40921.44648q-2.29816-.27078-4.58513-.34613c-.31218-.01-.36975-.228-.41389-.47275-.15949-.88433-.32575-1.76831-.48592-2.65262a1.2838,1.2838,0,0,0-.19428-.66159A6.76474,6.76474,0,0,1,49.571,38.96615a2.41538,2.41538,0,0,0,.774-1.25256c.23908-.93552.59362-1.82692.90146-2.736.054-.15962.23669-.33906.03975-.48954-.18905-.14445-.31358.0779-.43459.18719q-1.065.9618-2.12265,1.93169c-.18859-.48834-.26852-.9424.19049-1.25093a.381.381,0,0,0,.14511-.42662c-.08194-.32649.09136-.521.2246-.75974.47419-.84971.77981-1.88329,2.13521-1.63166a.57416.57416,0,0,0,.75425-.51272c.17464-.74721.83758-.96343,1.57546-.57234a.92952.92952,0,0,0,.47138.14911,2.682,2.682,0,0,1,.22467,2.32134,4.5788,4.5788,0,0,0-.12326.70537c-.00713.18526-.13349.36477.01256.568a3.70122,3.70122,0,0,1,.194-.47348A3.76942,3.76942,0,0,1,54.84431,34.31175Z" fill="#cf9e76"/></g></g></svg>