<svg id="Layer_1" data-name="Layer 1" xmlns="http://www.w3.org/2000/svg" viewBox="0 0 811 811"><defs><style>.cls-1{stroke:#000;}.cls-1,.cls-6,.cls-7,.cls-8{stroke-miterlimit:10;}.cls-2{fill:none;}.cls-3,.cls-6{fill:#099;}.cls-4{fill:#ababab;}.cls-5,.cls-7{fill:#336;}.cls-6{stroke:#16a085;}.cls-7{stroke:#34495e;}.cls-8{fill:#ccc;stroke:#ababab;}</style></defs><title>maker auctions-logo</title><rect class="cls-1" x="0.5" y="0.5" width="810" height="810"/><g id="Calque_2" data-name="Calque 2"><rect class="cls-2" x="119.5" y="511.6" width="627.5" height="93.5"/><path class="cls-3" d="M183.9,553c-.5-9.4-1.1-20.7-1-29.1h-.3c-2.3,7.9-5.1,16.3-8.5,25.6l-11.9,32.7h-6.6l-10.9-32.1c-3.2-9.5-5.9-18.2-7.8-26.2h-.2c-.2,8.4-.7,19.7-1.3,29.8l-1.8,28.9h-8.3l4.7-67.4h11.1l11.5,32.6c2.8,8.3,5.1,15.7,6.8,22.7h.3c1.7-6.8,4.1-14.2,7.1-22.7l12-32.6h11.1l4.2,67.4h-8.5Z"/><path class="cls-4" d="M234.6,582.6l-.7-6.1h-.3a18,18,0,0,1-14.8,7.2c-9.8,0-14.8-6.9-14.8-13.9,0-11.7,10.4-18.1,29.1-18v-1c0-4-1.1-11.2-11-11.2a24.12,24.12,0,0,0-12.6,3.6l-2-5.8a30,30,0,0,1,15.9-4.3c14.8,0,18.4,10.1,18.4,19.8V571a68.15,68.15,0,0,0,.8,11.6h-8Zm-1.3-24.7c-9.6-.2-20.5,1.5-20.5,10.9,0,5.7,3.8,8.4,8.3,8.4a12,12,0,0,0,11.7-8.1,9.18,9.18,0,0,0,.5-2.8Z"/><path class="cls-4" d="M264.7,556.4h.2c1.2-1.7,2.9-3.8,4.3-5.5l14.2-16.7H294l-18.7,19.9,21.3,28.5H285.9l-16.7-23.2-4.5,5v18.2H256v-71h8.7v44.8Z"/><path class="cls-4" d="M307.8,560c.2,11.9,7.8,16.8,16.6,16.8a31.82,31.82,0,0,0,13.4-2.5l1.5,6.3c-3.1,1.4-8.4,3-16.1,3-14.9,0-23.8-9.8-23.8-24.4s8.6-26.1,22.7-26.1c15.8,0,20,13.9,20,22.8a33.2,33.2,0,0,1-.3,4.1h-34Zm25.8-6.3c.1-5.6-2.3-14.3-12.2-14.3-8.9,0-12.8,8.2-13.5,14.3Z"/><path class="cls-4" d="M353,549.3c0-5.7-.1-10.6-.4-15.1h7.7l.3,9.5h.4c2.2-6.5,7.5-10.6,13.4-10.6a9.52,9.52,0,0,1,2.5.3v8.3a13.22,13.22,0,0,0-3-.3c-6.2,0-10.6,4.7-11.8,11.3a24.77,24.77,0,0,0-.4,4.1v25.8H353Z"/><path class="cls-5" d="M396.9,561.4l-7,21.2h-9l22.9-67.4h10.5l23,67.4H428l-7.2-21.2Zm22.1-6.8-6.6-19.4c-1.5-4.4-2.5-8.4-3.5-12.3h-.2c-1,4-2.1,8.1-3.4,12.2l-6.6,19.5Z"/><path class="cls-4" d="M486.2,569.4c0,5,.1,9.4.4,13.2h-7.8l-.5-7.9h-.2a18.21,18.21,0,0,1-16,9c-7.6,0-16.7-4.2-16.7-21.2V534.2h8.8V561c0,9.2,2.8,15.4,10.8,15.4a12.72,12.72,0,0,0,11.6-8,12.87,12.87,0,0,0,.8-4.5V534.2h8.8v35.2Z"/><path class="cls-4" d="M535.3,580.8a32.41,32.41,0,0,1-13.9,2.8c-14.6,0-24.1-9.9-24.1-24.7s10.2-25.7,26-25.7a29.42,29.42,0,0,1,12.2,2.5l-2,6.8a20.41,20.41,0,0,0-10.2-2.3c-11.1,0-17.1,8.2-17.1,18.3,0,11.2,7.2,18.1,16.8,18.1a25,25,0,0,0,10.8-2.4Z"/><path class="cls-4" d="M557.5,520.3v13.9h12.6v6.7H557.5V567c0,6,1.7,9.4,6.6,9.4a19.58,19.58,0,0,0,5.1-.6l.4,6.6a21.54,21.54,0,0,1-7.8,1.2c-4.1,0-7.4-1.3-9.5-3.7-2.5-2.6-3.4-6.9-3.4-12.6V540.9h-7.5v-6.7h7.5V522.6Z"/><path class="cls-4" d="M589.7,520.6c.1,3-2.1,5.4-5.6,5.4a5.23,5.23,0,0,1-5.3-5.16q0-.12,0-.24a5.36,5.36,0,0,1,5.22-5.5h.28a5.22,5.22,0,0,1,5.4,5Q589.71,520.36,589.7,520.6Zm-9.8,62V534.2h8.8v48.4Z"/><path class="cls-4" d="M647.2,558c0,17.9-12.4,25.7-24.1,25.7-13.1,0-23.2-9.6-23.2-24.9,0-16.2,10.6-25.7,24-25.7C637.8,533.1,647.2,543.2,647.2,558Zm-38.5.5c0,10.6,6.1,18.6,14.7,18.6,8.4,0,14.7-7.9,14.7-18.8,0-8.2-4.1-18.6-14.5-18.6S608.7,549.3,608.7,558.5Z"/><path class="cls-4" d="M658.2,547.3c0-5-.1-9.1-.4-13.1h7.8l.5,8h.2a17.8,17.8,0,0,1,16-9.1c6.7,0,17.1,4,17.1,20.6v28.9h-8.8V554.7c0-7.8-2.9-14.3-11.2-14.3a12.5,12.5,0,0,0-11.8,9,12.65,12.65,0,0,0-.6,4.1v29.1h-8.8Z"/><path class="cls-4" d="M712.5,573.6a23.06,23.06,0,0,0,11.6,3.5c6.4,0,9.4-3.2,9.4-7.2,0-4.2-2.5-6.5-9-8.9-8.7-3.1-12.8-7.9-12.8-13.7,0-7.8,6.3-14.2,16.7-14.2a24.16,24.16,0,0,1,11.9,3l-2.2,6.4a18.84,18.84,0,0,0-9.9-2.8c-5.2,0-8.1,3-8.1,6.6,0,4,2.9,5.8,9.2,8.2,8.4,3.2,12.7,7.4,12.7,14.6,0,8.5-6.6,14.5-18.1,14.5a27.6,27.6,0,0,1-13.6-3.3Z"/></g><path class="cls-6" d="M395.6,205.5s-59.4,88.2-58,114.1l56.2-7.2-34.2,69.1,37.8-10.8S370.8,447,370.8,476.9c0,0,19.8-86.8,38.9-116.3l-36,7.6,36-67.3-63,9.7s22.3-68.8,56.2-115.2"/><path class="cls-7" d="M443.1,171.7S383.3,241.4,365,294.8l61.5-8.3-36.7,67.3,36-10.4S386.6,435.2,388,450.7c0,0,33.8-93.6,51.5-117.4L404,341.9,443.1,276l-68,10.8s27.4-70.6,70.2-117.7"/><path class="cls-8" d="M443.5,197.6s-45,51.8-52.2,78.1l68.4-9-37.4,60.1,37.4-4.7s-42.1,72.7-51.5,105.5c0,0,53.3-105.7,67-115l-36.4,4.1,36.4-59.4L401,267.4"/></svg>