<svg id="Layer_1" data-name="Layer 1" xmlns="http://www.w3.org/2000/svg" viewBox="0 0 583.35 241.09"><defs><style>.cls-1,.cls-4{fill:#35495e;}.cls-2{fill:#dbdada;}.cls-3,.cls-7{fill:#acacac;}.cls-4{font-size:100px;font-family:TwCenMT-CondensedExtraBold, Tw Cen MT Condensed Extra Bold;font-weight:800;}.cls-5{font-size:60px;fill:#14a085;stroke:#14a085;font-family:CopperplateGothic-Light, Copperplate Gothic Light;font-weight:300;}.cls-5,.cls-7,.cls-8{stroke-miterlimit:10;}.cls-6{letter-spacing:-0.02em;}.cls-7{stroke:#acacac;stroke-width:3px;}.cls-8{fill:none;stroke:#35495e;stroke-width:5px;}</style></defs><title>makerauctionslogo</title><path class="cls-1" d="M229.19,124.75a70,70,0,1,1-70-70A70,70,0,0,1,229.19,124.75Z"/><path class="cls-2" d="M217.64,124.75a58.49,58.49,0,1,1-58.49-58.49A58.48,58.48,0,0,1,217.64,124.75Z"/><path class="cls-3" d="M217.64,124.75a58.48,58.48,0,0,0-105.56-34.7,58.47,58.47,0,0,1,87.8,76.65A58.28,58.28,0,0,0,217.64,124.75Z"/><text class="cls-4" transform="translate(117.04 159.58)">M</text><text class="cls-5" transform="translate(229.19 162.59)"><tspan class="cls-6">A</tspan><tspan x="42.92" y="0" xml:space="preserve">uc  ions</tspan></text><rect class="cls-3" x="366.68" y="63.35" width="7.04" height="38.35" rx="3.52" transform="translate(90.86 -174.05) rotate(30)"/><rect class="cls-3" x="415.8" y="84.84" width="7.04" height="40.49" rx="3.52" transform="translate(88.94 -173.7) rotate(26.09)"/><path class="cls-7" d="M383.68,73.53l33.27,16-11,24.27-11.74-5.48L360.2,174.49a7.13,7.13,0,0,1-9,.79c-3-2.27-3.49-7.3-.39-10.57l32.87-61.44-12.52-6.65Z"/><rect class="cls-8" x="61.95" y="42.66" width="491.95" height="168.2" rx="12"/></svg>