<svg id="Layer_1" data-name="Layer 1" xmlns="http://www.w3.org/2000/svg" viewBox="0 0 851.3 310.97"><defs><style>.cls-1,.cls-6{font-size:90px;}.cls-1,.cls-3,.cls-6,.cls-7,.cls-8{fill:#14a085;}.cls-1,.cls-3{font-family:CopperplateGothic-Light, Copperplate Gothic Light;font-weight:300;}.cls-2{letter-spacing:0.01em;}.cls-3{font-size:70px;stroke:#14a085;}.cls-3,.cls-5{stroke-miterlimit:10;}.cls-4,.cls-5{fill:#35495e;}.cls-5{stroke:#35495e;stroke-width:3px;}.cls-6{font-family:TwCenMT-CondensedExtraBold, Tw Cen MT Condensed Extra Bold;font-weight:800;}.cls-7{font-size:200px;font-family:ColonnaMT, Colonna MT;}</style></defs><title>makerauctionslogo</title><text class="cls-1" transform="translate(291.27 178.41)"><tspan xml:space="preserve">   </tspan><tspan class="cls-2" x="67.5" y="0">k</tspan><tspan x="123.97" y="0">er</tspan></text><text class="cls-3" transform="translate(400.31 226.56)">uctions</text><rect class="cls-4" x="210" y="45.86" width="8.3" height="45.17" rx="4.15" transform="translate(62.91 -97.9) rotate(30)"/><rect class="cls-4" x="267.85" y="71.17" width="8.3" height="47.69" rx="4.15" transform="translate(69.5 -109.94) rotate(26.09)"/><path class="cls-5" d="M230,57.84l39.18,18.9-12.9,28.58-13.83-6.45-40.11,77.9a8.38,8.38,0,0,1-10.6.92c-3.51-2.67-4.11-8.59-.46-12.44L230,92.88,215.27,85Z"/><text class="cls-6" transform="translate(242.46 178.41)">M</text><text class="cls-7" transform="translate(272.46 224.84)">A</text><polygon class="cls-8" points="669.45 237.53 289.6 237.53 294.81 233.35 663.27 233.35 669.45 237.53"/><polygon class="cls-8" points="679.43 244.24 280.02 244.24 285.5 240.67 672.94 240.67 679.43 244.24"/></svg>