<svg id="Layer_1" data-name="Layer 1" xmlns="http://www.w3.org/2000/svg" viewBox="0 0 855.12 239.37"><defs><style>.cls-1{font-size:70px;}.cls-1,.cls-6,.cls-7{fill:#35495e;}.cls-1,.cls-3{font-family:CopperplateGothic-Light, Copperplate Gothic Light;font-weight:300;}.cls-2{letter-spacing:0.01em;}.cls-3{font-size:52px;stroke:#14a085;stroke-width:2px;}.cls-3,.cls-8{fill:#14a085;}.cls-3,.cls-5{stroke-miterlimit:10;}.cls-4,.cls-5{fill:#acacac;}.cls-5{stroke:#acacac;stroke-width:3px;}.cls-6{font-size:90px;font-family:TwCenMT-CondensedExtraBold, Tw Cen MT Condensed Extra Bold;font-weight:800;}.cls-7{font-size:200px;font-family:ColonnaMT, Colonna MT;}</style></defs><title>makerauctionslogo</title><text class="cls-1" transform="translate(223 140.32)"><tspan xml:space="preserve">   </tspan><tspan class="cls-2" x="52.5" y="0">k</tspan><tspan x="96.42" y="0">er</tspan></text><text class="cls-3" transform="translate(316.13 187.3)"><tspan xml:space="preserve">uc   ions</tspan></text><path class="cls-4" d="M406,102.35h0a4.17,4.17,0,0,1-1.36-5.45l16.54-30.72a3.6,3.6,0,0,1,5.08-1.46h0a4.16,4.16,0,0,1,1.36,5.45l-16.54,30.72A3.6,3.6,0,0,1,406,102.35Z"/><path class="cls-4" d="M458.59,129.68h0a4.15,4.15,0,0,1-1.7-5.34l15.54-34a3.62,3.62,0,0,1,5-1.83h0a4.14,4.14,0,0,1,1.7,5.34l-15.54,34A3.63,3.63,0,0,1,458.59,129.68Z"/><path class="cls-5" d="M430.35,73.34l35.14,18.17L453.92,119l-12.41-6.21-36,74.91a7.13,7.13,0,0,1-9.5.89c-3.15-2.57-3.7-8.27-.42-12L430.35,107l-13.23-7.54Z"/><text class="cls-6" transform="translate(156.28 139.15)">M</text><text class="cls-7" transform="translate(186.28 185.58)">A</text><polygon class="cls-8" points="540.22 199.14 193.59 199.14 198.34 194.09 534.59 194.09 540.22 199.14"/><polygon class="cls-8" points="549.34 207.27 184.84 207.27 189.84 202.95 543.41 202.95 549.34 207.27"/></svg>