<svg id="Layer_1" data-name="Layer 1" xmlns="http://www.w3.org/2000/svg" viewBox="0 0 851.3 310.97"><defs><style>.cls-1,.cls-8{font-size:90px;}.cls-1,.cls-10,.cls-6,.cls-8,.cls-9{fill:#14a085;}.cls-1,.cls-6{font-family:CopperplateGothic-Light, Copperplate Gothic Light;font-weight:300;}.cls-2{letter-spacing:0.01em;}.cls-3,.cls-7{fill:#35495e;}.cls-4{fill:#dbdada;}.cls-5{fill:#acacac;}.cls-6{font-size:70px;stroke:#14a085;}.cls-6,.cls-7{stroke-miterlimit:10;}.cls-7{stroke:#35495e;stroke-width:3px;}.cls-8{font-family:TwCenMT-CondensedExtraBold, Tw Cen MT Condensed Extra Bold;font-weight:800;}.cls-9{font-size:200px;font-family:ColonnaMT, Colonna MT;}</style></defs><title>makerauctionslogo</title><text class="cls-1" transform="translate(291.27 204.41)"><tspan xml:space="preserve">   </tspan><tspan class="cls-2" x="67.5" y="0">k</tspan><tspan x="123.97" y="0">er</tspan></text><path class="cls-3" d="M349.74,140.94a97.12,97.12,0,1,1-97.12-97.12A97.12,97.12,0,0,1,349.74,140.94Z"/><path class="cls-4" d="M333.72,140.94a81.11,81.11,0,1,1-81.1-81.1A81.11,81.11,0,0,1,333.72,140.94Z"/><path class="cls-5" d="M333.72,140.94A81.1,81.1,0,0,0,187.34,92.82,81.09,81.09,0,0,1,309.1,199.12,80.88,80.88,0,0,0,333.72,140.94Z"/><text class="cls-6" transform="translate(400.31 252.56)">uctions</text><rect class="cls-3" x="217.46" y="73.55" width="7.69" height="41.89" rx="3.85" transform="translate(76.9 -97.99) rotate(30)"/><rect class="cls-3" x="271.1" y="97.02" width="7.69" height="44.22" rx="3.85" transform="translate(80.41 -108.78) rotate(26.09)"/><path class="cls-7" d="M236,84.66l36.33,17.53-12,26.5-12.82-6L210.38,195a7.78,7.78,0,0,1-9.83.85c-3.25-2.48-3.82-8-.43-11.54L236,117.15l-13.68-7.27Z"/><text class="cls-8" transform="translate(236.46 204.41)">M</text><text class="cls-9" transform="translate(272.46 250.84)">A</text><polygon class="cls-10" points="673.94 264.33 292.64 264.33 297.87 259.35 667.74 259.35 673.94 264.33"/><polygon class="cls-10" points="683.96 272.34 283.02 272.34 288.52 268.08 677.44 268.08 683.96 272.34"/></svg>